<svg width="12" height="10" viewBox="0 0 12 10" fill="none" xmlns="http://www.w3.org/2000/svg">
<path d="M0.721267 5.98802C0.770368 5.99599 0.820059 5.99966 0.869777 5.99902L9.33554 5.99902L9.15094 6.08488C8.9705 6.17028 8.80635 6.28652 8.66583 6.42832L6.29182 8.80233C5.97916 9.1008 5.92662 9.58094 6.16733 9.93997C6.44747 10.3225 6.98471 10.4056 7.36732 10.1255C7.39823 10.1028 7.42761 10.0781 7.45522 10.0516L11.7482 5.75861C12.0837 5.42349 12.084 4.87987 11.7489 4.54437C11.7486 4.54416 11.7484 4.54392 11.7482 4.5437L7.45522 0.250736C7.11945 -0.0840883 6.57583 -0.0833378 6.24098 0.252426C6.21463 0.278854 6.19002 0.306973 6.16733 0.336596C5.92662 0.695621 5.97916 1.17576 6.29182 1.47423L8.66154 3.85254C8.78751 3.97864 8.93235 4.08438 9.09084 4.16592L9.34841 4.28183L0.917026 4.28183C0.478418 4.26555 0.0936079 4.57193 0.0112095 5.00305C-0.0646954 5.47112 0.2532 5.91209 0.721267 5.98802Z" fill="white"/>
</svg>
